<svg width="178" height="66" viewBox="0 0 178 66" fill="none" xmlns="http://www.w3.org/2000/svg">
<g clip-path="url(#clip0_1_24)">
<path d="M80.77 16.9962C80.77 15.0474 81.4105 13.5639 82.5522 12.6131C83.4433 11.8579 84.7033 11.46 86.1862 11.46C87.7177 11.46 88.929 11.8579 89.841 12.6131C91.0036 13.5639 91.6232 15.0474 91.6232 16.9962C91.6232 18.945 91.0036 20.4488 89.841 21.3996C88.929 22.1279 87.7177 22.5527 86.1862 22.5527C84.7033 22.5527 83.4433 22.1346 82.5522 21.3996C81.4105 20.4488 80.77 18.9383 80.77 16.9962ZM81.9117 24.4947H97.4779V32H94.9856V26.5986H81.9117V24.4947ZM83.1926 16.9962C83.1926 18.2572 83.5616 19.1878 84.1951 19.761C84.6964 20.2262 85.3577 20.4892 86.1862 20.4892C87.0285 20.4892 87.7177 20.2262 88.1981 19.761C88.8594 19.1878 89.2005 18.2572 89.2005 16.9962C89.2005 15.7757 88.8594 14.8249 88.1981 14.2315C87.7177 13.7864 87.0355 13.5437 86.1862 13.5437C85.3647 13.5437 84.7033 13.7864 84.1951 14.2315C83.5616 14.8249 83.1926 15.7757 83.1926 16.9962ZM97.4779 14.0022H100.381V16.1263H97.4779V18.5607H100.381V20.6646H97.4779V23.1865H94.9856V11.5949H97.4779V14.0022Z" fill="#393A3A"/>
<path d="M102.525 23.8137V21.73H121.196V23.8137H113.337V27.536H110.865V23.8137H102.525ZM119.853 13.8741H113.065V14.0292C113.065 16.2005 116.838 17.7919 120.061 17.9673V19.9835C116.769 19.8486 113.504 18.5202 111.854 16.7939C110.183 18.5674 106.918 19.8486 103.604 19.9835V17.9673C106.848 17.8122 110.601 16.1938 110.601 14.0292V13.8741H103.903V11.8376H119.853V13.8741ZM106.368 25.9176V29.6803H120.215V31.764H103.897V25.9176H106.368Z" fill="#393A3A"/>
<path d="M141.928 11.9455V23.1933H135.092V28.7025H143V30.7862H124.6V28.7025H132.62V23.1933H125.673V11.9455H141.928ZM128.172 21.0692H139.436V14.0696H128.172V21.0692Z" fill="#393A3A"/>
<path d="M72.26 5.66C64.7 -1.9 52.41 -1.9 44.86 5.66L42.2 8.32L47.9 14.02L50.56 11.36C54.97 6.95 62.15 6.95 66.56 11.36C70.97 15.77 70.97 22.95 66.56 27.36L58.02 35.9C56.44 37.47 56.44 40.03 58.02 41.6C58.81 42.39 59.84 42.78 60.87 42.78C61.9 42.78 62.93 42.39 63.72 41.6L72.26 33.06C79.81 25.51 79.81 13.21 72.26 5.66Z" fill="#4BA7BC"/>
<path d="M39.17 11.34L33.49 5.66C25.94 -1.9 13.64 -1.9 6.09 5.66C-1.46 13.22 -1.46 25.51 6.09 33.06L14.63 41.6C15.42 42.39 16.45 42.78 17.48 42.78C18.51 42.78 19.54 42.39 20.33 41.6C21.91 40.03 21.91 37.47 20.33 35.9L11.79 27.36C7.38 22.95 7.38 15.78 11.79 11.36C16.2 6.95 23.38 6.95 27.79 11.36L36.33 19.9C37.91 21.48 40.46 21.48 42.03 19.9L44.88 17.05L39.17 11.34Z" fill="#6EBFD6"/>
<path d="M0.42 55.61C0.42 54.27 0.85 53.24 1.61 52.59C2.21 52.07 3.05 51.8 4.04 51.8C5.06 51.8 5.87 52.08 6.48 52.59C7.26 53.25 7.67 54.27 7.67 55.61C7.67 56.95 7.26 58 6.48 58.65C5.87 59.15 5.06 59.44 4.04 59.44C3.05 59.44 2.21 59.15 1.61 58.65C0.85 58 0.42 56.96 0.42 55.61ZM1.18 60.79H11.58V65.97H9.92V62.24H1.18V60.79ZM2.04 55.61C2.04 56.48 2.28 57.12 2.71 57.52C3.05 57.84 3.49 58.02 4.04 58.02C4.61 58.02 5.06 57.84 5.38 57.52C5.82 57.12 6.05 56.48 6.05 55.61C6.05 54.77 5.82 54.11 5.38 53.7C5.06 53.39 4.6 53.23 4.04 53.23C3.49 53.23 3.05 53.4 2.71 53.7C2.28 54.11 2.04 54.77 2.04 55.61ZM11.59 53.55H13.53V55.02H11.59V56.7H13.53V58.15H11.59V59.89H9.92V51.88H11.59V53.55Z" fill="#393A3A"/>
<path d="M18.84 61.36C18.21 62.95 16.59 64.23 14.84 64.81V63.28C16.5 62.52 18 61.11 18 57.25V52.06H19.65V57.25C19.65 61.12 21.18 62.51 22.83 63.28V64.81C21.07 64.21 19.47 62.93 18.84 61.36ZM26.25 51.88V57.53H28.42V58.98H26.25V65.73H24.58V51.88H26.25Z" fill="#393A3A"/>
<path d="M41.25 51.88V65.74H39.58V64.17C38.98 64.74 37.73 64.95 36.2 64.95H29.75V63.53H36.62C37.87 63.53 38.93 63.35 39.57 62.81V51.88H41.25ZM30.23 56.28C30.23 54.75 30.67 53.55 31.53 52.8C32.16 52.27 33.04 51.96 34.02 51.96C35 51.96 35.88 52.27 36.51 52.8C37.4 53.55 37.81 54.76 37.81 56.28C37.81 57.81 37.4 59 36.51 59.76C35.88 60.3 35 60.6 34.02 60.6C33.04 60.6 32.16 60.29 31.53 59.76C30.68 59 30.23 57.81 30.23 56.28ZM31.9 56.28C31.9 57.32 32.11 58.16 32.63 58.65C32.98 58.99 33.45 59.15 34.02 59.15C34.6 59.15 35.09 58.98 35.41 58.65C35.93 58.16 36.16 57.32 36.16 56.28C36.16 55.26 35.93 54.39 35.41 53.9C35.09 53.56 34.6 53.41 34.02 53.41C33.45 53.41 32.98 53.56 32.63 53.9C32.11 54.39 31.9 55.26 31.9 56.28Z" fill="#393A3A"/>
<path d="M52.82 52.13V64.81H46.13V52.13H52.82ZM47.78 63.37H51.17V53.6H47.78V63.37ZM57.19 51.88V65.74H55.52V51.88H57.19Z" fill="#393A3A"/>
<path d="M64.44 64.81H60.7V57.68H64.03V53.6H60.7V52.13H65.66V59.13H62.31V63.36H64.75C65.9 63.36 66.75 63.15 67.29 62.69V51.98H68.88V57.4H70.44V51.89H72.06V65.75H70.44V58.86H68.88V65.58H67.3V64.05C66.77 64.55 65.77 64.81 64.44 64.81Z" fill="#393A3A"/>
<path d="M74.89 59.6V58.32H87.37V59.6H74.89ZM77.46 55.34V56.21H86.55V57.43H75.81V54.13H84.81V53.3H75.81V52.05H86.47V55.33H77.46V55.34ZM77.46 63.77V64.69H86.78V65.88H75.81V62.61H84.81V61.72H75.81V60.51H86.47V63.76H77.46V63.77Z" fill="#393A3A"/>
<path d="M91.33 60.45V59.01H103.81V60.45H98.55V63.02H96.9V60.45H91.33ZM102.91 53.59H98.37V53.7C98.37 55.2 100.89 56.3 103.04 56.42V57.81C100.84 57.72 98.66 56.8 97.56 55.61C96.44 56.83 94.26 57.72 92.04 57.81V56.42C94.21 56.31 96.71 55.2 96.71 53.7V53.59H92.23V52.18H102.89V53.59H102.91ZM93.9 61.9V64.5H103.16V65.94H92.25V61.9H93.9Z" fill="#393A3A"/>
<path d="M108.21 57.16H111.6V52.26H113.25V64.94H106.56V52.26H108.21V57.16ZM111.6 63.5V58.6H108.21V63.5H111.6ZM117.62 52.01V65.87H115.95V52.01H117.62Z" fill="#393A3A"/>
<path d="M123.65 53.6V51.61H125.32V53.6H128.45V55.04H120.55V53.6H123.65ZM121.12 60.66C121.12 58.81 121.59 57.45 122.56 56.7C123.09 56.32 123.75 56.1 124.56 56.1C125.26 56.1 125.87 56.25 126.36 56.59C127.43 57.29 127.99 58.71 127.99 60.65C127.99 62.59 127.44 63.98 126.4 64.68C125.9 65.02 125.28 65.18 124.55 65.18C123.77 65.18 123.11 64.98 122.59 64.6C121.6 63.9 121.12 62.54 121.12 60.66ZM122.77 60.66C122.77 61.97 122.98 62.91 123.5 63.39C123.77 63.63 124.13 63.77 124.55 63.77C124.96 63.77 125.28 63.63 125.54 63.4C126.09 62.91 126.33 61.96 126.33 60.65C126.33 59.23 126.04 58.28 125.47 57.82C125.23 57.62 124.92 57.53 124.54 57.53C124.11 57.53 123.78 57.64 123.52 57.88C123 58.39 122.77 59.3 122.77 60.66ZM131.95 52.01V57.66H134.12V59.11H131.95V65.86H130.28V52.01H131.95Z" fill="#393A3A"/>
<path d="M135.32 60.22V58.78H147.8V60.22H135.32ZM137.89 52.11V55.5H146.98V56.94H136.24V52.11H137.89ZM137.89 61.52V64.5H147.15V65.94H136.24V61.52H137.89Z" fill="#393A3A"/>
<path d="M162.93 52.26V60.02H158.36V63.82H163.65V65.26H151.35V63.82H156.71V60.02H152.07V52.26H162.93ZM153.74 58.55H161.27V53.72H153.74V58.55Z" fill="#393A3A"/>
<path d="M166.2 55.59C166.2 54.31 166.61 53.33 167.36 52.7C167.99 52.2 168.84 51.92 169.84 51.92C170.85 51.92 171.69 52.2 172.31 52.7C173.06 53.33 173.47 54.3 173.47 55.59C173.47 56.86 173.06 57.84 172.31 58.46C171.68 58.98 170.84 59.24 169.84 59.24C168.85 59.24 167.99 58.98 167.36 58.46C166.61 57.83 166.2 56.86 166.2 55.59ZM167.22 66.01V60.63H177.58V66.01H167.22ZM167.82 55.59C167.82 56.35 168.05 56.95 168.46 57.33C168.81 57.64 169.27 57.82 169.83 57.82C170.4 57.82 170.87 57.64 171.2 57.33C171.61 56.95 171.84 56.35 171.84 55.59C171.84 54.83 171.61 54.23 171.2 53.85C170.86 53.53 170.39 53.36 169.83 53.36C169.26 53.36 168.81 53.53 168.46 53.85C168.05 54.23 167.82 54.83 167.82 55.59ZM175.92 62.05H168.89V64.6H175.92V62.05ZM177.58 59.74H175.91V52.01H177.58V59.74Z" fill="#393A3A"/>
</g>
<defs>
<clipPath id="clip0_1_24">
<rect width="178" height="66" fill="white"/>
</clipPath>
</defs>
</svg>
